<?xml version="1.0" standalone="no"?>
<!DOCTYPE svg PUBLIC "-//W3C//DTD SVG 20010904//EN"
 "http://www.w3.org/TR/2001/REC-SVG-20010904/DTD/svg10.dtd">
<svg version="1.0" xmlns="http://www.w3.org/2000/svg"
 width="2692.000000pt" height="2692.000000pt" viewBox="0 0 2692.000000 2692.000000"
 preserveAspectRatio="xMidYMid meet">
<metadata>
Created by potrace 1.14, written by Peter Selinger 2001-2017
</metadata>
<g transform="translate(0.000000,2692.000000) scale(0.100000,-0.100000)"
fill="#000000" stroke="none">
<path d="M3520 13455 l0 -5076 1883 4 c1035 2 1898 6 1917 9 33 5 150 16 249
23 41 3 127 14 161 20 8 2 44 6 80 10 36 4 67 8 70 10 3 2 30 6 60 10 72 9
323 59 430 85 47 12 96 23 110 26 47 9 365 105 415 124 11 5 65 25 120 45 93
35 167 65 290 118 89 39 377 187 403 207 13 11 28 20 33 20 15 0 335 202 349
220 3 4 15 12 27 19 42 22 277 206 392 306 149 130 337 320 451 455 30 35 61
71 68 78 7 8 25 30 40 50 15 21 29 39 32 42 13 11 150 200 197 270 250 374
464 829 597 1273 81 267 149 585 181 842 4 28 8 61 10 75 9 58 19 169 32 339
15 197 7 802 -12 961 -2 19 -7 64 -10 100 -7 84 -15 151 -20 170 -3 8 -7 40
-10 70 -4 30 -13 89 -21 130 -8 41 -17 91 -20 110 -7 47 -44 212 -48 219 -2 3
-7 22 -10 41 -3 19 -13 60 -21 90 -9 30 -18 62 -20 70 -10 38 -56 189 -69 225
-8 22 -29 81 -46 130 -18 50 -38 104 -45 120 -7 17 -33 75 -56 130 -183 428
-460 865 -779 1230 -43 49 -319 325 -380 381 -110 98 -352 285 -496 382 -259
173 -620 367 -910 487 -222 93 -616 221 -764 250 -9 2 -45 10 -81 19 -35 8
-75 18 -89 20 -14 3 -86 16 -160 30 -74 13 -155 27 -180 31 -25 4 -56 8 -70
10 -118 17 -237 30 -370 41 -47 4 -105 9 -130 12 -25 2 -885 6 -1912 9 l-1868
4 0 -5076z m3675 3432 c28 -4 97 -11 155 -17 58 -6 117 -13 132 -15 16 -3 40
-7 55 -9 192 -27 450 -90 638 -157 175 -61 423 -178 547 -256 21 -12 40 -23
42 -23 10 0 230 -152 299 -206 83 -66 225 -192 277 -246 75 -78 127 -135 170
-188 25 -30 47 -57 50 -60 14 -13 141 -193 186 -265 134 -211 248 -454 322
-685 71 -220 83 -268 137 -550 3 -14 7 -45 10 -70 3 -25 7 -56 10 -70 37 -203
48 -746 19 -1025 -2 -22 -6 -65 -9 -95 -6 -66 -17 -142 -36 -255 -120 -707
-435 -1324 -909 -1781 -116 -112 -153 -144 -285 -243 -197 -149 -298 -212
-510 -315 -223 -109 -536 -216 -734 -251 -19 -3 -37 -8 -40 -10 -4 -2 -27 -6
-51 -10 -25 -3 -52 -8 -60 -10 -8 -2 -35 -7 -60 -10 -25 -3 -56 -8 -70 -10
-206 -33 -392 -39 -1280 -39 l-825 -1 -1 3435 c-1 1889 2 3437 7 3440 12 8
1754 4 1814 -3z"/>
<path d="M13194 13455 l0 -5075 926 0 926 0 0 3510 c-1 2658 2 3506 11 3497 6
-7 51 -67 100 -133 48 -67 228 -312 398 -545 171 -232 348 -475 395 -540 47
-64 95 -130 107 -145 12 -16 79 -108 149 -204 70 -96 148 -203 173 -237 25
-34 60 -82 77 -105 17 -24 76 -104 131 -178 54 -74 163 -223 241 -330 78 -107
253 -346 388 -530 135 -184 252 -344 260 -355 95 -132 142 -196 164 -225 14
-19 82 -111 150 -205 68 -93 128 -171 132 -173 4 -2 8 -8 8 -12 0 -5 28 -47
63 -93 34 -45 82 -111 107 -146 25 -35 56 -77 70 -95 l25 -31 108 0 108 0 75
100 c41 55 80 107 87 115 6 8 84 112 172 230 88 118 162 217 166 220 3 3 30
39 60 80 30 41 59 82 66 90 7 8 73 96 147 195 75 99 144 191 155 205 31 40 95
127 111 150 8 12 25 34 38 48 12 15 35 45 50 67 15 22 33 46 40 53 6 8 26 35
44 60 17 26 34 49 38 52 3 3 90 118 193 255 103 138 195 261 206 275 10 14
144 192 296 395 153 204 288 384 301 400 13 17 51 68 86 115 34 47 66 90 71
95 5 6 103 136 218 290 115 154 215 287 222 295 6 8 64 85 127 170 63 85 117
157 121 160 3 3 11 15 18 28 7 12 15 21 19 18 4 -2 7 -1553 7 -3445 l-1 -3441
933 0 933 0 0 5075 0 5075 -884 0 -884 0 -22 -27 c-12 -16 -51 -68 -86 -118
-36 -49 -84 -117 -107 -149 -23 -32 -55 -78 -72 -102 -16 -23 -40 -54 -52 -67
-12 -14 -27 -36 -34 -48 -7 -13 -17 -29 -23 -36 -6 -6 -21 -27 -34 -45 -31
-45 -100 -141 -109 -153 -5 -5 -30 -41 -57 -80 -27 -38 -59 -82 -70 -96 -12
-14 -28 -36 -36 -48 -8 -13 -61 -86 -118 -164 -56 -78 -114 -158 -127 -177
-33 -47 -63 -89 -190 -265 -60 -82 -139 -193 -177 -245 -37 -52 -76 -106 -85
-119 -10 -13 -50 -69 -90 -125 -39 -56 -75 -105 -80 -111 -5 -5 -71 -98 -148
-205 -76 -107 -148 -207 -159 -221 -12 -14 -28 -36 -36 -49 -18 -26 -133 -187
-152 -212 -7 -9 -31 -42 -53 -73 -55 -78 -163 -228 -173 -240 -4 -5 -75 -104
-157 -219 -83 -114 -167 -231 -188 -260 -20 -28 -45 -62 -55 -76 -14 -22 -103
-145 -254 -354 -21 -28 -53 -73 -73 -101 -19 -27 -52 -73 -73 -101 -20 -28
-75 -106 -122 -172 -47 -67 -88 -120 -92 -119 -4 1 -29 32 -55 69 -42 58 -763
1038 -898 1220 -27 37 -77 104 -110 149 -33 45 -96 131 -140 190 -44 60 -124
168 -177 241 -54 73 -153 208 -220 300 -68 91 -168 227 -223 303 -55 75 -106
144 -113 153 -28 37 -214 289 -337 457 -194 265 -373 509 -382 520 -5 6 -33
44 -63 85 -30 41 -59 80 -63 85 -5 6 -100 136 -213 290 -113 154 -210 287
-217 295 -7 8 -46 61 -87 118 l-74 102 -886 0 -886 0 0 -5075z"/>
</g>
</svg>
