<svg>
    <symbol id="heart-outline" viewBox="0 0 24 24" fill="none" xmlns="http://www.w3.org/2000/svg">
        <g>
            <g>
                <path
                        d="M12.62 20.8101C12.28 20.9301 11.72 20.9301 11.38 20.8101C8.48 19.8201 2 15.6901 2 8.6901C2 5.6001 4.49 3.1001 7.56 3.1001C9.38 3.1001 10.99 3.9801 12 5.3401C13.01 3.9801 14.63 3.1001 16.44 3.1001C19.51 3.1001 22 5.6001 22 8.6901C22 15.6901 15.52 19.8201 12.62 20.8101Z"
                        stroke="currentColor" stroke-width="1.5" stroke-linecap="round" stroke-linejoin="round"/>
            </g>
        </g>
    </symbol>

    <symbol id="heart-solid" xmlns="http://www.w3.org/2000/svg" viewBox="0 0 24 24" fill="none">
        <path d="M16.44 3.1001C14.63 3.1001 13.01 3.9801 12 5.3301C10.99 3.9801 9.37 3.1001 7.56 3.1001C4.49 3.1001 2 5.6001 2 8.6901C2 9.8801 2.19 10.9801 2.52 12.0001C4.1 17.0001 8.97 19.9901 11.38 20.8101C11.72 20.9301 12.28 20.9301 12.62 20.8101C15.03 19.9901 19.9 17.0001 21.48 12.0001C21.81 10.9801 22 9.8801 22 8.6901C22 5.6001 19.51 3.1001 16.44 3.1001Z"
              fill="currentColor"/>
    </symbol>

    <symbol id="gas-station" xmlns="http://www.w3.org/2000/svg" viewBox="0 0 24 24"
            fill="none">
        <path d="M22.34 9.33L20.34 8.33C19.97 8.15 19.51 8.29 19.33 8.66C19.14 9.04 19.29 9.49 19.66 9.67L21.25 10.46V15.25L17.5 15.26V5C17.5 3 16.16 2 14.5 2H6.5C4.84 2 3.5 3 3.5 5V21.25H2C1.59 21.25 1.25 21.59 1.25 22C1.25 22.41 1.59 22.75 2 22.75H19C19.41 22.75 19.75 22.41 19.75 22C19.75 21.59 19.41 21.25 19 21.25H17.5V16.76L22 16.75C22.42 16.75 22.75 16.41 22.75 16V10C22.75 9.72 22.59 9.46 22.34 9.33ZM6 6.89C6 5.5 6.85 5 7.89 5H13.12C14.15 5 15 5.5 15 6.89V8.12C15 9.5 14.15 10 13.11 10H7.89C6.85 10 6 9.5 6 8.11V6.89ZM6.5 12.25H9.5C9.91 12.25 10.25 12.59 10.25 13C10.25 13.41 9.91 13.75 9.5 13.75H6.5C6.09 13.75 5.75 13.41 5.75 13C5.75 12.59 6.09 12.25 6.5 12.25Z"
              fill="currentColor"/>
    </symbol>

    <symbol id="steering-wheel" xmlns="http://www.w3.org/2000/svg" viewBox="0 0 24 24"
            fill="none">
        <path d="M12 2C6.48 2 2 6.48 2 12C2 17.52 6.48 22 12 22C17.52 22 22 17.52 22 12C22 6.48 17.53 2 12 2Z"
              fill="#90A3BF"/>
        <rect x="4" y="4" width="16" height="16" rx="8" fill="white"/>
        <path d="M12 6C8.688 6 6 8.688 6 12C6 15.312 8.688 18 12 18C15.312 18 18 15.312 18 12C18 8.688 15.318 6 12 6Z"
              fill="#90A3BF"/>
        <rect x="8" y="8" width="8" height="8" rx="4" fill="white"/>
        <rect x="11" y="17" width="2" height="4" fill="#90A3BF"/>
        <rect x="17" y="11" width="4" height="2" fill="#90A3BF"/>
        <rect x="3" y="11" width="4" height="2" fill="#90A3BF"/>
    </symbol>

    <symbol id="profile-2-user" xmlns="http://www.w3.org/2000/svg" viewBox="0 0 24 24"
            fill="none">
        <path d="M9 2C6.38 2 4.25 4.13 4.25 6.75C4.25 9.32 6.26 11.4 8.88 11.49C8.96 11.48 9.04 11.48 9.1 11.49C9.12 11.49 9.13 11.49 9.15 11.49C9.16 11.49 9.16 11.49 9.17 11.49C11.73 11.4 13.74 9.32 13.75 6.75C13.75 4.13 11.62 2 9 2Z"
              fill="#90A3BF"/>
        <path d="M14.08 14.1499C11.29 12.2899 6.74002 12.2899 3.93002 14.1499C2.66002 14.9999 1.96002 16.1499 1.96002 17.3799C1.96002 18.6099 2.66002 19.7499 3.92002 20.5899C5.32002 21.5299 7.16002 21.9999 9.00002 21.9999C10.84 21.9999 12.68 21.5299 14.08 20.5899C15.34 19.7399 16.04 18.5999 16.04 17.3599C16.03 16.1299 15.34 14.9899 14.08 14.1499Z"
              fill="#90A3BF"/>
        <path d="M19.99 7.3401C20.15 9.2801 18.77 10.9801 16.86 11.2101C16.85 11.2101 16.85 11.2101 16.84 11.2101H16.81C16.75 11.2101 16.69 11.2101 16.64 11.2301C15.67 11.2801 14.78 10.9701 14.11 10.4001C15.14 9.4801 15.73 8.1001 15.61 6.6001C15.54 5.7901 15.26 5.0501 14.84 4.4201C15.22 4.2301 15.66 4.1101 16.11 4.0701C18.07 3.9001 19.82 5.3601 19.99 7.3401Z"
              fill="#90A3BF"/>
        <path d="M21.99 16.5899C21.91 17.5599 21.29 18.3999 20.25 18.9699C19.25 19.5199 17.99 19.7799 16.74 19.7499C17.46 19.0999 17.88 18.2899 17.96 17.4299C18.06 16.1899 17.47 14.9999 16.29 14.0499C15.62 13.5199 14.84 13.0999 13.99 12.7899C16.2 12.1499 18.98 12.5799 20.69 13.9599C21.61 14.6999 22.08 15.6299 21.99 16.5899Z"
              fill="#90A3BF"/>
    </symbol>

    <symbol id="search-normal" viewBox="0 0 24 24" fill="none"
            xmlns="http://www.w3.org/2000/svg">
        <path d="M11.5 21C16.7467 21 21 16.7467 21 11.5C21 6.25329 16.7467 2 11.5 2C6.25329 2 2 6.25329 2 11.5C2 16.7467 6.25329 21 11.5 21Z"
              stroke="#596780" stroke-width="1.5" stroke-linecap="round" stroke-linejoin="round"/>
        <path d="M22 22L20 20" stroke="#596780" stroke-width="1.5" stroke-linecap="round" stroke-linejoin="round"/>
    </symbol>

    <symbol id="magnifying-glass" viewBox="0 0 24 24" fill="none" xmlns="http://www.w3.org/2000/svg">
        <path d="M11.5 21C16.7467 21 21 16.7467 21 11.5C21 6.25329 16.7467 2 11.5 2C6.25329 2 2 6.25329 2 11.5C2 16.7467 6.25329 21 11.5 21Z"
              stroke="currentColor" stroke-width="1.5" stroke-linecap="round" stroke-linejoin="round"/>
        <path d="M22 22L20 20" stroke="#596780" stroke-width="1.5" stroke-linecap="round" stroke-linejoin="round"/>
    </symbol>

    <symbol id="square-arrow-right" xmlns="http://www.w3.org/2000/svg" width="75" height="120" viewBox="0 0 75 120"
            fill="none">
        <path d="M25 60L0 0H25H50L75 60L50 120H25H0L25 60Z" fill="white" fill-opacity="0.06"/>
    </symbol>

    <symbol id="star-outline" viewBox="0 0 20 20" fill="none" xmlns="http://www.w3.org/2000/svg">
        <path fill-rule="evenodd" clip-rule="evenodd"
              d="M9.16676 2.65838C9.22433 2.47584 9.33858 2.31641 9.49294 2.20324C9.64729 2.09007 9.8337 2.02905 10.0251 2.02905C10.2165 2.02905 10.4029 2.09007 10.5573 2.20324C10.7116 2.31641 10.8259 2.47584 10.8834 2.65838L12.4334 7.42505H17.4334C17.6317 7.41755 17.8269 7.47516 17.9893 7.58908C18.1517 7.70299 18.2724 7.86695 18.3329 8.05589C18.3933 8.24484 18.3903 8.44838 18.3242 8.63542C18.2581 8.82247 18.1325 8.98273 17.9668 9.09171L13.9084 12.0334L15.4584 16.8084C15.5197 16.9903 15.5213 17.187 15.4628 17.3698C15.4044 17.5526 15.2891 17.712 15.1336 17.8246C14.9782 17.9372 14.7908 17.9972 14.5989 17.9958C14.407 17.9944 14.2205 17.9316 14.0668 17.8167L10.0001 14.8417L5.94176 17.7917C5.78802 17.9066 5.60157 17.9694 5.40963 17.9708C5.2177 17.9722 5.03034 17.9122 4.87491 17.7996C4.71948 17.687 4.60412 17.5276 4.54569 17.3448C4.48725 17.162 4.4888 16.9653 4.5501 16.7834L6.1001 12.0084L2.04176 9.06671C1.876 8.95773 1.75047 8.79747 1.68437 8.61042C1.61826 8.42338 1.6152 8.21984 1.67566 8.03089C1.73612 7.84195 1.85678 7.67799 2.0192 7.56408C2.18161 7.45016 2.37686 7.39255 2.5751 7.40005H7.5751L9.16676 2.65838Z"
              stroke="#90A3BF" stroke-width="1.5" stroke-linecap="round" stroke-linejoin="round"/>
    </symbol>

    <symbol id="star" viewBox="0 0 18 16" fill="none" xmlns="http://www.w3.org/2000/svg">
        <g id="Layer">
            <path id="Vector" fill-rule="evenodd" clip-rule="evenodd"
                  d="M8.16676 0.65838C8.22433 0.475844 8.33858 0.316412 8.49294 0.203241C8.64729 0.0900697 8.8337 0.0290527 9.0251 0.0290527C9.21649 0.0290527 9.40291 0.0900697 9.55726 0.203241C9.71161 0.316412 9.82587 0.475844 9.88343 0.65838L11.4334 5.42505H16.4334C16.6317 5.41755 16.8269 5.47516 16.9893 5.58908C17.1517 5.70299 17.2724 5.86695 17.3329 6.05589C17.3933 6.24484 17.3903 6.44838 17.3242 6.63542C17.2581 6.82247 17.1325 6.98273 16.9668 7.09171L12.9084 10.0334L14.4584 14.8084C14.5197 14.9903 14.5213 15.187 14.4628 15.3698C14.4044 15.5526 14.2891 15.712 14.1336 15.8246C13.9782 15.9372 13.7908 15.9972 13.5989 15.9958C13.407 15.9944 13.2205 15.9316 13.0668 15.8167L9.0001 12.8417L4.94176 15.7917C4.78802 15.9066 4.60157 15.9694 4.40963 15.9708C4.2177 15.9722 4.03034 15.9122 3.87491 15.7996C3.71948 15.687 3.60412 15.5276 3.54569 15.3448C3.48725 15.162 3.4888 14.9653 3.5501 14.7834L5.1001 10.0084L1.04176 7.06671C0.876001 6.95773 0.750474 6.79747 0.684365 6.61042C0.618256 6.42338 0.615199 6.21984 0.675661 6.03089C0.736123 5.84195 0.85678 5.67799 1.0192 5.56408C1.18161 5.45016 1.37686 5.39255 1.5751 5.40005H6.5751L8.16676 0.65838Z"
                  fill="#FBAD39"/>
        </g>
    </symbol>

</svg>